# xmcd
#
# Track frame offsets: 
#        150
#        24475
#        43825
#        61375
#        80137
#        102562
#        123550
#        143550
#        161300
#        183400
#        204337
#        226825
#        241375
#        265400
#        288575
#        307350
#        326700
#
# Disc length: 4537 seconds
#
# Revision: 7
# Processed by: cddbd v1.5.2PL0 Copyright (c) Steve Scherf et al.
# Submitted via: ExactAudioCopy v1.3
#
DISCID=fd11b711
DTITLE=Paul Young - Love Songs
DYEAR=1995
DGENRE=Pop
TTITLE0=Everytime You Go Away
TTITLE1=Don't Dream It's Over
TTITLE2=Broken Man
TTITLE3=Softly Whispering I Love You
TTITLE4=Wonderland
TTITLE5=It Will Be You
TTITLE6=Senza Una Donna (Without A Woman) (duet with Zucchero)
TTITLE7=Now I Know What Made Otis Blue
TTITLE8=Love Will Tear Us Apart
TTITLE9=Everything Must Change
TTITLE10=Half A Step Away
TTITLE11=This Means Anything
TTITLE12=Won't Look Back
TTITLE13=Calling You
TTITLE14=Wherever I Lay My Hat (That's My Home)
TTITLE15=Follow On (Acoustic)
TTITLE16=Love Hurts
EXTD=YEAR: 1995
EXTT0=
EXTT1=
EXTT2=
EXTT3=
EXTT4=
EXTT5=
EXTT6=
EXTT7=
EXTT8=
EXTT9=
EXTT10=
EXTT11=
EXTT12=
EXTT13=
EXTT14=
EXTT15=
EXTT16=
PLAYORDER=
